<svg width="24" height="24" viewBox="0 0 24 24" fill="none" xmlns="http://www.w3.org/2000/svg">
<path d="M22.5004 11.9976H21.0004C20.8826 11.9976 20.7861 12.094 20.7861 12.2119V20.7833H3.2147V3.2119H11.7861C11.904 3.2119 12.0004 3.11547 12.0004 2.99761V1.49761C12.0004 1.37975 11.904 1.28333 11.7861 1.28333H2.14328C1.66917 1.28333 1.28613 1.66636 1.28613 2.14047V21.8548C1.28613 22.3289 1.66917 22.7119 2.14328 22.7119H21.8576C22.3317 22.7119 22.7147 22.3289 22.7147 21.8548V12.2119C22.7147 12.094 22.6183 11.9976 22.5004 11.9976Z" fill="#595959"/>
<path d="M7.81899 12.611L7.76809 15.7958C7.76542 16.0342 7.95827 16.2298 8.19667 16.2298H8.20738L11.3681 16.1521C11.4217 16.1494 11.4752 16.128 11.5127 16.0905L22.6529 4.9744C22.7359 4.89136 22.7359 4.75475 22.6529 4.67172L19.3235 1.34493C19.2806 1.30208 19.227 1.28333 19.1708 1.28333C19.1145 1.28333 19.0609 1.30475 19.0181 1.34493L7.88059 12.461C7.84191 12.5015 7.8199 12.555 7.81899 12.611ZM9.51988 13.2431L19.1708 3.61368L20.3815 4.82172L10.7252 14.4565L9.50113 14.486L9.51988 13.2431Z" fill="#595959"/>
</svg>
